<svg width="25" height="24" viewBox="0 0 25 24" fill="none" xmlns="http://www.w3.org/2000/svg">
<path d="M12.7441 1.5C10.5569 1.50258 8.45998 2.3726 6.91337 3.91922C5.36675 5.46584 4.49673 7.56276 4.49415 9.75C4.49153 11.5374 5.07538 13.2763 6.15615 14.7C6.15615 14.7 6.38115 14.9963 6.4179 15.039L12.7441 22.5L19.0734 15.0353C19.1064 14.9955 19.3321 14.7 19.3321 14.7L19.3329 14.6978C20.4131 13.2747 20.9967 11.5366 20.9941 9.75C20.9916 7.56276 20.1215 5.46584 18.5749 3.91922C17.0283 2.3726 14.9314 1.50258 12.7441 1.5ZM12.7441 12.75C12.1508 12.75 11.5708 12.5741 11.0774 12.2444C10.5841 11.9148 10.1996 11.4462 9.97251 10.8981C9.74545 10.3499 9.68604 9.74667 9.80179 9.16473C9.91755 8.58279 10.2033 8.04824 10.6228 7.62868C11.0424 7.20912 11.5769 6.9234 12.1589 6.80764C12.7408 6.69189 13.344 6.7513 13.8922 6.97836C14.4404 7.20542 14.9089 7.58994 15.2386 8.08329C15.5682 8.57664 15.7441 9.15666 15.7441 9.75C15.7432 10.5453 15.4268 11.3078 14.8644 11.8702C14.302 12.4326 13.5395 12.749 12.7441 12.75Z" fill="white"/>
</svg>
