<svg width="41" height="40" viewBox="0 0 41 40" fill="none" xmlns="http://www.w3.org/2000/svg">
<rect x="0.744141" width="40" height="40" rx="20" fill="#585858"/>
<g clip-path="url(#clip0_446_5974)">
<path d="M20.7416 22.7118C22.2407 22.7118 23.4559 21.4965 23.4559 19.9975C23.4559 18.4984 22.2407 17.2832 20.7416 17.2832C19.2426 17.2832 18.0273 18.4984 18.0273 19.9975C18.0273 21.4965 19.2426 22.7118 20.7416 22.7118Z" fill="white"/>
<path d="M24.1346 11.8555H17.3489C14.7303 11.8555 12.5996 13.9869 12.5996 16.6061V23.3919C12.5996 26.0105 14.731 28.1412 17.3503 28.1412H24.136C26.7546 28.1412 28.8853 26.0098 28.8853 23.3905V16.6048C28.8853 13.9862 26.7539 11.8555 24.1346 11.8555ZM20.7425 24.0698C18.4971 24.0698 16.671 22.2437 16.671 19.9983C16.671 17.7529 18.4971 15.9269 20.7425 15.9269C22.9879 15.9269 24.8139 17.7529 24.8139 19.9983C24.8139 22.2437 22.9879 24.0698 20.7425 24.0698ZM25.4925 15.9269C25.1179 15.9269 24.8139 15.6229 24.8139 15.2483C24.8139 14.8738 25.1179 14.5698 25.4925 14.5698C25.867 14.5698 26.171 14.8738 26.171 15.2483C26.171 15.6229 25.867 15.9269 25.4925 15.9269Z" fill="white"/>
</g>
<defs>
<clipPath id="clip0_446_5974">
<rect width="17.1429" height="17.1429" fill="white" transform="translate(12.1719 11.4277)"/>
</clipPath>
</defs>
</svg>
