<svg width="25" height="24" viewBox="0 0 25 24" fill="none" xmlns="http://www.w3.org/2000/svg">
<path d="M20.7444 10.999H22.7444C22.7444 5.869 18.8714 2 13.7344 2V4C17.7964 4 20.7444 6.943 20.7444 10.999Z" fill="white"/>
<path d="M13.7444 7.99999C15.8474 7.99999 16.7444 8.89699 16.7444 11H18.7444C18.7444 7.77499 16.9694 5.99999 13.7444 5.99999V7.99999ZM17.1664 13.443C16.9743 13.2683 16.7218 13.1752 16.4622 13.1832C16.2027 13.1912 15.9564 13.2998 15.7754 13.486L13.3824 15.947C12.8064 15.837 11.6484 15.476 10.4564 14.287C9.26442 13.094 8.90342 11.933 8.79642 11.361L11.2554 8.96699C11.4418 8.78612 11.5506 8.53982 11.5586 8.2802C11.5666 8.02059 11.4733 7.76804 11.2984 7.57599L7.60342 3.51299C7.42847 3.32035 7.1853 3.2035 6.92558 3.18725C6.66585 3.17101 6.41002 3.25665 6.21242 3.42599L4.04242 5.28699C3.86953 5.46051 3.76634 5.69145 3.75242 5.93599C3.73742 6.18599 3.45142 12.108 8.04342 16.702C12.0494 20.707 17.0674 21 18.4494 21C18.6514 21 18.7754 20.994 18.8084 20.992C19.0529 20.9783 19.2837 20.8747 19.4564 20.701L21.3164 18.53C21.4859 18.3325 21.5717 18.0768 21.5556 17.817C21.5396 17.5573 21.4229 17.3141 21.2304 17.139L17.1664 13.443Z" fill="white"/>
</svg>
