<svg width="41" height="40" viewBox="0 0 41 40" fill="none" xmlns="http://www.w3.org/2000/svg">
<rect x="0.744141" width="40" height="40" rx="20" fill="#585858"/>
<g clip-path="url(#clip0_446_5970)">
<path d="M29.3156 14.6959C28.6727 14.9637 28.0299 15.178 27.2799 15.2316C28.0299 14.803 28.5656 14.1066 28.8334 13.303C28.137 13.7316 27.387 13.9994 26.5834 14.1602C25.9406 13.4637 25.0299 13.0352 24.0656 13.0352C22.137 13.0352 20.5299 14.5887 20.5299 16.5709C20.5299 16.8387 20.5834 17.1066 20.637 17.3744C17.6906 17.2137 15.1191 15.8209 13.3513 13.678C13.0299 14.2137 12.8691 14.803 12.8691 15.4459C12.8691 16.678 13.512 17.7494 14.4227 18.3923C13.8334 18.3923 13.2977 18.2316 12.8156 17.9637V18.0173C12.8156 19.7316 14.0477 21.1244 15.6549 21.4459C15.3334 21.4994 15.0656 21.553 14.7441 21.553C14.5299 21.553 14.3156 21.553 14.1013 21.4994C14.5299 22.8923 15.8691 23.9102 17.3691 23.9637C16.1906 24.928 14.637 25.4637 12.9763 25.4637C12.7084 25.4637 12.387 25.4637 12.1191 25.4102C13.7263 26.3744 15.6013 26.9637 17.5834 26.9637C24.0656 26.9637 27.6013 21.6066 27.6013 16.9459C27.6013 16.7852 27.6013 16.6244 27.6013 16.5173C28.2441 15.9816 28.8334 15.3923 29.3156 14.6959Z" fill="white"/>
</g>
<defs>
<clipPath id="clip0_446_5970">
<rect width="17.1429" height="17.1429" fill="white" transform="translate(12.1719 11.4277)"/>
</clipPath>
</defs>
</svg>
