<svg width="197" height="31" viewBox="0 0 197 31" fill="none" xmlns="http://www.w3.org/2000/svg">
<g filter="url(#filter0_b_446_5813)">
<g clip-path="url(#clip0_446_5813)">
<path d="M0.594283 3.08948C0.198094 2.72765 0 2.30319 0 1.81611C0 1.32903 0.198094 0.901098 0.594283 0.539267C0.994073 0.180915 1.54153 0 2.24026 0H8.88903C9.58776 0 10.1352 0.180915 10.5314 0.539267C10.9276 0.901098 11.1293 1.32555 11.1293 1.81263C11.1293 2.29971 10.9312 2.72765 10.5314 3.086C10.1352 3.44783 9.58416 3.62527 8.88903 3.62527H2.24026C1.54153 3.62527 0.994073 3.44435 0.597884 3.086L0.594283 3.08948ZM0.594283 7.5567C0.198094 7.19487 0 6.77041 0 6.28333C0 5.79625 0.198094 5.37179 0.594283 5.00996C0.990471 4.64813 1.54153 4.46722 2.23666 4.46722H8.88542C9.58416 4.46722 10.1316 4.64813 10.5278 5.00996C10.924 5.37179 11.1257 5.79625 11.1257 6.28333C11.1257 6.77041 10.9276 7.19834 10.5278 7.5567C10.1316 7.91853 9.58055 8.09944 8.88542 8.09944H2.24026C1.54153 8.09944 0.994073 7.91853 0.597884 7.5567H0.594283ZM0.594283 25.4256C0.198094 25.0637 0 24.6393 0 24.1522C0 23.6651 0.198094 23.2372 0.594283 22.8788C0.990471 22.517 1.54153 22.3361 2.23666 22.3361H8.88542C9.58416 22.3361 10.1316 22.517 10.5278 22.8788C10.924 23.2407 11.1257 23.6616 11.1257 24.1522C11.1257 24.6428 10.9276 25.0672 10.5278 25.4256C10.1316 25.7874 9.58055 25.9683 8.88542 25.9683H2.24026C1.54153 25.9683 0.994073 25.7874 0.597884 25.4256H0.594283ZM0.594283 29.8928C0.198094 29.531 0 29.11 0 28.6194C0 28.1289 0.198094 27.7079 0.594283 27.3461C0.990471 26.9842 1.54153 26.8033 2.23666 26.8033H8.88542C9.58416 26.8033 10.1316 26.9842 10.5278 27.3461C10.924 27.7079 11.1257 28.1323 11.1257 28.6194C11.1257 29.1065 10.9276 29.5344 10.5278 29.8928C10.1316 30.2546 9.58055 30.4355 8.88542 30.4355H2.24026C1.54153 30.4355 0.994073 30.2546 0.597884 29.8928H0.594283ZM5.21888 12.0274C4.82269 11.6656 4.621 11.2411 4.621 10.754C4.621 10.2669 4.81909 9.84249 5.21888 9.48066C5.61507 9.11883 6.16253 8.94139 6.86126 8.94139H22.7556C23.4544 8.94139 24.0018 9.12231 24.398 9.48066C24.7942 9.84249 24.9959 10.2669 24.9959 10.754C24.9959 11.2411 24.7978 11.669 24.398 12.0274C24.0018 12.3892 23.4507 12.5667 22.7556 12.5667H6.86486C6.16613 12.5667 5.61867 12.3857 5.22248 12.0274H5.21888ZM5.21888 20.9618C4.82269 20.6 4.621 20.1755 4.621 19.6885C4.621 19.2014 4.81909 18.7769 5.21888 18.4151C5.61507 18.0533 6.16253 17.8758 6.86126 17.8758H22.7556C23.4544 17.8758 24.0018 18.0567 24.398 18.4151C24.7942 18.7769 24.9959 19.2014 24.9959 19.6885C24.9959 20.1755 24.7978 20.6035 24.398 20.9618C24.0018 21.3237 23.4507 21.5046 22.7556 21.5046H6.86486C6.16613 21.5046 5.61867 21.3237 5.22248 20.9618H5.21888ZM9.84348 16.4946C9.44729 16.1328 9.2492 15.7083 9.2492 15.2212C9.2492 14.7342 9.44729 14.3097 9.84348 13.9479C10.2397 13.586 10.7907 13.4051 11.4859 13.4051H18.1346C18.8334 13.4051 19.3808 13.586 19.777 13.9479C20.1732 14.3097 20.3713 14.7342 20.3713 15.2212C20.3713 15.7083 20.1732 16.1363 19.777 16.4946C19.3808 16.8564 18.8298 17.0374 18.1346 17.0374H11.4859C10.7871 17.0374 10.2397 16.8564 9.84348 16.4946ZM19.0927 3.08948C18.6965 2.72765 18.4984 2.30319 18.4984 1.81611C18.4984 1.32903 18.6965 0.901098 19.0927 0.542746C19.4889 0.180915 20.0363 0.00347914 20.7351 0.00347914H27.3838C28.0826 0.00347914 28.63 0.184395 29.0262 0.542746C29.4224 0.904577 29.6205 1.32903 29.6205 1.81611C29.6205 2.30319 29.4224 2.73113 29.0262 3.08948C28.63 3.45131 28.0789 3.62875 27.3838 3.62875H20.7351C20.0363 3.62875 19.4889 3.44783 19.0927 3.08948ZM19.0927 7.5567C18.6965 7.19487 18.4984 6.77041 18.4984 6.28333C18.4984 5.79625 18.6965 5.37179 19.0927 5.00996C19.4889 4.64813 20.0363 4.46722 20.7351 4.46722H27.3838C28.0826 4.46722 28.63 4.64813 29.0262 5.00996C29.4224 5.37179 29.6205 5.79625 29.6205 6.28333C29.6205 6.77041 29.4224 7.19834 29.0262 7.5567C28.63 7.91853 28.0789 8.09944 27.3838 8.09944H20.7351C20.0363 8.09944 19.4889 7.91853 19.0927 7.5567ZM19.0927 25.4256C18.6965 25.0637 18.4984 24.6393 18.4984 24.1522C18.4984 23.6651 18.6965 23.2372 19.0927 22.8788C19.4889 22.5205 20.0363 22.3361 20.7351 22.3361H27.3838C28.0826 22.3361 28.63 22.517 29.0262 22.8788C29.4224 23.2407 29.6205 23.6616 29.6205 24.1522C29.6205 24.6428 29.4224 25.0672 29.0262 25.4256C28.63 25.7874 28.0789 25.9683 27.3838 25.9683H20.7351C20.0363 25.9683 19.4889 25.7874 19.0927 25.4256ZM19.0927 29.8928C18.6965 29.531 18.4984 29.11 18.4984 28.6194C18.4984 28.1289 18.6965 27.7079 19.0927 27.3461C19.4889 26.9842 20.0363 26.8033 20.7351 26.8033H27.3838C28.0826 26.8033 28.63 26.9842 29.0262 27.3461C29.4224 27.7079 29.6205 28.1323 29.6205 28.6194C29.6205 29.1065 29.4224 29.5344 29.0262 29.8928C28.63 30.2546 28.0789 30.4355 27.3838 30.4355H20.7351C20.0363 30.4355 19.4889 30.2546 19.0927 29.8928Z" fill="url(#paint0_linear_446_5813)"/>
<path d="M33.8923 3.08942C33.4961 2.72759 33.2944 2.30313 33.2944 1.81605C33.2944 1.32897 33.4925 0.901037 33.8923 0.542685C34.2885 0.180854 34.836 0.00341797 35.5347 0.00341797H56.0537C56.7524 0.00341797 57.2998 0.184333 57.696 0.542685C58.0922 0.904516 58.2903 1.32897 58.2903 1.81605C58.2903 2.30313 58.0922 2.73107 57.696 3.08942C57.2998 3.45125 56.7488 3.62868 56.0537 3.62868H35.5347C34.836 3.62868 34.2885 3.44777 33.8923 3.08942ZM33.8923 7.55663C33.4961 7.1948 33.2944 6.77035 33.2944 6.28327C33.2944 5.79619 33.4925 5.37173 33.8923 5.0099C34.2885 4.64807 34.836 4.46716 35.5347 4.46716H42.1835C42.8822 4.46716 43.4297 4.64807 43.8258 5.0099C44.222 5.37173 44.4237 5.79619 44.4237 6.28327C44.4237 6.77035 44.2256 7.19828 43.8258 7.55663C43.4297 7.91846 42.8786 8.09938 42.1835 8.09938H35.5347C34.836 8.09938 34.2885 7.91846 33.8923 7.55663ZM33.8923 12.0239C33.4961 11.662 33.2944 11.2376 33.2944 10.7505C33.2944 10.2634 33.4925 9.83895 33.8923 9.47712C34.2885 9.11529 34.836 8.93785 35.5347 8.93785H42.1835C42.8822 8.93785 43.4297 9.11877 43.8258 9.47712C44.222 9.83895 44.4237 10.2634 44.4237 10.7505C44.4237 11.2376 44.2256 11.6655 43.8258 12.0239C43.4297 12.3857 42.8786 12.5631 42.1835 12.5631H35.5347C34.836 12.5631 34.2885 12.3822 33.8923 12.0239ZM33.8923 16.4911C33.4961 16.1292 33.2944 15.7048 33.2944 15.2177C33.2944 14.7306 33.4925 14.3062 33.8923 13.9443C34.2885 13.5825 34.836 13.4016 35.5347 13.4016H56.0537C56.7524 13.4016 57.2998 13.5825 57.696 13.9443C58.0922 14.3062 58.2903 14.7306 58.2903 15.2177C58.2903 15.7048 58.0922 16.1327 57.696 16.4911C57.2998 16.8529 56.7488 17.0338 56.0537 17.0338H35.5347C34.836 17.0338 34.2885 16.8529 33.8923 16.4911ZM33.8923 20.9583C33.4961 20.5965 33.2944 20.172 33.2944 19.6849C33.2944 19.1978 33.4925 18.7734 33.8923 18.4116C34.2885 18.0497 34.836 17.8723 35.5347 17.8723H42.1835C42.8822 17.8723 43.4297 18.0532 43.8258 18.4116C44.222 18.7734 44.4237 19.1978 44.4237 19.6849C44.4237 20.172 44.2256 20.5999 43.8258 20.9583C43.4297 21.3201 42.8786 21.501 42.1835 21.501H35.5347C34.836 21.501 34.2885 21.3201 33.8923 20.9583ZM33.8923 25.4255C33.4961 25.0637 33.2944 24.6392 33.2944 24.1521C33.2944 23.6651 33.4925 23.2371 33.8923 22.8788C34.2921 22.5204 34.836 22.336 35.5347 22.336H42.1835C42.8822 22.336 43.4297 22.5169 43.8258 22.8788C44.222 23.2406 44.4237 23.6616 44.4237 24.1521C44.4237 24.6427 44.2256 25.0672 43.8258 25.4255C43.4297 25.7873 42.8786 25.9683 42.1835 25.9683H35.5347C34.836 25.9683 34.2885 25.7873 33.8923 25.4255ZM33.8923 29.8927C33.4961 29.5309 33.2944 29.1099 33.2944 28.6194C33.2944 28.1288 33.4925 27.7078 33.8923 27.346C34.2885 26.9842 34.836 26.8032 35.5347 26.8032H42.1835C42.8822 26.8032 43.4297 26.9842 43.8258 27.346C44.222 27.7078 44.4237 28.1323 44.4237 28.6194C44.4237 29.1064 44.2256 29.5344 43.8258 29.8927C43.4297 30.2546 42.8786 30.4355 42.1835 30.4355H35.5347C34.836 30.4355 34.2885 30.2546 33.8923 29.8927ZM52.3907 7.56011C51.9945 7.19828 51.7928 6.77383 51.7928 6.28675C51.7928 5.79967 51.9909 5.37521 52.3907 5.01338C52.7869 4.65155 53.3344 4.47064 54.0331 4.47064H60.6819C61.3806 4.47064 61.928 4.65155 62.3242 5.01338C62.7204 5.37521 62.9221 5.79967 62.9221 6.28675C62.9221 6.77383 62.724 7.20176 62.3242 7.56011C61.928 7.92194 61.377 8.10286 60.6819 8.10286H54.0331C53.3344 8.10286 52.7869 7.92194 52.3907 7.56011ZM52.3907 12.0273C51.9945 11.6655 51.7928 11.241 51.7928 10.754C51.7928 10.2669 51.9909 9.84243 52.3907 9.4806C52.7869 9.11877 53.3344 8.94133 54.0331 8.94133H60.6819C61.3806 8.94133 61.928 9.12225 62.3242 9.4806C62.7204 9.84243 62.9221 10.2669 62.9221 10.754C62.9221 11.241 62.724 11.669 62.3242 12.0273C61.928 12.3892 61.377 12.5666 60.6819 12.5666H54.0331C53.3344 12.5666 52.7869 12.3857 52.3907 12.0273Z" fill="url(#paint1_linear_446_5813)"/>
<path d="M67.1866 3.08942C66.7904 2.72759 66.5923 2.30313 66.5923 1.81605C66.5923 1.32897 66.7904 0.901037 67.1866 0.542685C67.5828 0.180854 68.1338 0.00341797 68.829 0.00341797H93.9725C94.6712 0.00341797 95.2187 0.184333 95.6149 0.542685C96.0111 0.904516 96.2128 1.32897 96.2128 1.81605C96.2128 2.30313 96.0147 2.73107 95.6149 3.08942C95.2187 3.45125 94.6676 3.62868 93.9725 3.62868H68.829C68.1302 3.62868 67.5828 3.44777 67.1866 3.08942ZM67.1866 25.4255C66.7904 25.0637 66.5923 24.6392 66.5923 24.1521C66.5923 23.6651 66.7904 23.2371 67.1866 22.8788C67.5828 22.5169 68.1338 22.336 68.829 22.336H75.4777C76.1764 22.336 76.7239 22.5169 77.1201 22.8788C77.5163 23.2406 77.7144 23.6616 77.7144 24.1521C77.7144 24.6427 77.5163 25.0672 77.1201 25.4255C76.7239 25.7873 76.1728 25.9683 75.4777 25.9683H68.829C68.1302 25.9683 67.5828 25.7873 67.1866 25.4255ZM67.1866 29.8927C66.7904 29.5309 66.5923 29.1099 66.5923 28.6194C66.5923 28.1288 66.7904 27.7078 67.1866 27.346C67.5828 26.9842 68.1338 26.8032 68.829 26.8032H93.9725C94.6712 26.8032 95.2187 26.9842 95.6149 27.346C96.0111 27.7078 96.2128 28.1323 96.2128 28.6194C96.2128 29.1064 96.0147 29.5344 95.6149 29.8927C95.2187 30.2546 94.6676 30.4355 93.9725 30.4355H68.829C68.1302 30.4355 67.5828 30.2546 67.1866 29.8927ZM71.8112 20.9583C71.415 20.5965 71.2133 20.172 71.2133 19.6849C71.2133 19.1978 71.4114 18.7734 71.8112 18.4116C72.2074 18.0497 72.7548 17.8723 73.4535 17.8723H80.1023C80.801 17.8723 81.3485 18.0532 81.7447 18.4116C82.1409 18.7734 82.3426 19.1978 82.3426 19.6849C82.3426 20.172 82.1445 20.5999 81.7447 20.9583C81.3485 21.3201 80.7974 21.501 80.1023 21.501H73.4535C72.7548 21.501 72.2074 21.3201 71.8112 20.9583ZM76.4358 16.4911C76.0396 16.1292 75.8379 15.7048 75.8379 15.2177C75.8379 14.7306 76.036 14.3062 76.4358 13.9443C76.832 13.5825 77.3794 13.4016 78.0781 13.4016H84.7269C85.4256 13.4016 85.9731 13.5825 86.3693 13.9443C86.7655 14.3062 86.9672 14.7306 86.9672 15.2177C86.9672 15.7048 86.7691 16.1327 86.3693 16.4911C85.9731 16.8529 85.422 17.0338 84.7269 17.0338H78.0781C77.3794 17.0338 76.832 16.8529 76.4358 16.4911ZM81.0604 12.0239C80.6642 11.662 80.4625 11.2376 80.4625 10.7505C80.4625 10.2634 80.6606 9.83895 81.0604 9.47712C81.4566 9.11529 82.004 8.93785 82.7027 8.93785H89.3515C90.0502 8.93785 90.5977 9.11877 90.9939 9.47712C91.3901 9.83895 91.5918 10.2634 91.5918 10.7505C91.5918 11.2376 91.3937 11.6655 90.9939 12.0239C90.5977 12.3857 90.0466 12.5631 89.3515 12.5631H82.7027C82.004 12.5631 81.4566 12.3822 81.0604 12.0239ZM85.685 7.55663C85.2888 7.1948 85.0871 6.77035 85.0871 6.28327C85.0871 5.79619 85.2852 5.37173 85.685 5.0099C86.0812 4.64807 86.6286 4.46716 87.3273 4.46716H93.9761C94.6748 4.46716 95.2223 4.64807 95.6185 5.0099C96.0147 5.37173 96.2164 5.79619 96.2164 6.28327C96.2164 6.77035 96.0183 7.19828 95.6185 7.55663C95.2223 7.91846 94.6712 8.09938 93.9761 8.09938H87.3273C86.6286 8.09938 86.0812 7.91846 85.685 7.55663Z" fill="white"/>
<path d="M100.481 7.55663C100.084 7.1948 99.8862 6.77035 99.8862 6.28327C99.8862 5.79619 100.084 5.37173 100.481 5.0099C100.877 4.64807 101.424 4.46716 102.123 4.46716H108.772C109.47 4.46716 110.018 4.64807 110.414 5.0099C110.81 5.37173 111.008 5.79619 111.008 6.28327C111.008 6.77035 110.81 7.19828 110.414 7.55663C110.018 7.91846 109.467 8.09938 108.772 8.09938H102.123C101.424 8.09938 100.877 7.91846 100.481 7.55663ZM100.481 12.0239C100.084 11.662 99.8862 11.2376 99.8862 10.7505C99.8862 10.2634 100.084 9.83895 100.481 9.47712C100.877 9.11529 101.424 8.93785 102.123 8.93785H108.772C109.47 8.93785 110.018 9.11877 110.414 9.47712C110.81 9.83895 111.008 10.2634 111.008 10.7505C111.008 11.2376 110.81 11.6655 110.414 12.0239C110.018 12.3857 109.467 12.5631 108.772 12.5631H102.123C101.424 12.5631 100.877 12.3822 100.481 12.0239ZM100.481 16.4911C100.084 16.1292 99.8862 15.7048 99.8862 15.2177C99.8862 14.7306 100.084 14.3062 100.481 13.9443C100.877 13.5825 101.424 13.4016 102.123 13.4016H108.772C109.47 13.4016 110.018 13.5825 110.414 13.9443C110.81 14.3062 111.008 14.7306 111.008 15.2177C111.008 15.7048 110.81 16.1327 110.414 16.4911C110.018 16.8529 109.467 17.0338 108.772 17.0338H102.123C101.424 17.0338 100.877 16.8529 100.481 16.4911ZM100.481 20.9583C100.084 20.5965 99.8862 20.172 99.8862 19.6849C99.8862 19.1978 100.084 18.7734 100.481 18.4116C100.877 18.0497 101.424 17.8723 102.123 17.8723H108.772C109.47 17.8723 110.018 18.0532 110.414 18.4116C110.81 18.7734 111.008 19.1978 111.008 19.6849C111.008 20.172 110.81 20.5999 110.414 20.9583C110.018 21.3201 109.467 21.501 108.772 21.501H102.123C101.424 21.501 100.877 21.3201 100.481 20.9583ZM100.481 25.4255C100.084 25.0637 99.8862 24.6392 99.8862 24.1521C99.8862 23.6651 100.084 23.2371 100.481 22.8788C100.877 22.5204 101.424 22.336 102.123 22.336H108.772C109.47 22.336 110.018 22.5169 110.414 22.8788C110.81 23.2406 111.008 23.6616 111.008 24.1521C111.008 24.6427 110.81 25.0672 110.414 25.4255C110.018 25.7873 109.467 25.9683 108.772 25.9683H102.123C101.424 25.9683 100.877 25.7873 100.481 25.4255ZM105.105 3.08942C104.709 2.72759 104.507 2.30313 104.507 1.81605C104.507 1.32897 104.705 0.901037 105.105 0.542685C105.501 0.180854 106.049 0.00341797 106.747 0.00341797H122.642C123.341 0.00341797 123.888 0.184333 124.284 0.542685C124.68 0.904516 124.882 1.32897 124.882 1.81605C124.882 2.30313 124.684 2.73106 124.284 3.08942C123.888 3.45125 123.337 3.62868 122.642 3.62868H106.747C106.049 3.62868 105.501 3.44777 105.105 3.08942ZM105.105 29.8892C104.709 29.5274 104.507 29.1064 104.507 28.6159C104.507 28.1253 104.705 27.7043 105.105 27.3425C105.501 26.9807 106.049 26.7998 106.747 26.7998H122.642C123.341 26.7998 123.888 26.9807 124.284 27.3425C124.68 27.7043 124.882 28.1288 124.882 28.6159C124.882 29.103 124.684 29.5309 124.284 29.8892C123.888 30.2511 123.337 30.432 122.642 30.432H106.747C106.049 30.432 105.501 30.2511 105.105 29.8892ZM118.979 7.55663C118.583 7.1948 118.381 6.77035 118.381 6.28327C118.381 5.79619 118.579 5.37173 118.979 5.0099C119.375 4.64807 119.923 4.46716 120.621 4.46716H127.27C127.969 4.46716 128.516 4.64807 128.912 5.0099C129.309 5.37173 129.51 5.79619 129.51 6.28327C129.51 6.77035 129.312 7.19828 128.912 7.55663C128.516 7.91846 127.965 8.09938 127.27 8.09938H120.621C119.923 8.09938 119.375 7.91846 118.979 7.55663ZM118.979 12.0239C118.583 11.662 118.381 11.2376 118.381 10.7505C118.381 10.2634 118.579 9.83895 118.979 9.47712C119.375 9.11529 119.923 8.93785 120.621 8.93785H127.27C127.969 8.93785 128.516 9.11877 128.912 9.47712C129.309 9.83895 129.51 10.2634 129.51 10.7505C129.51 11.2376 129.312 11.6655 128.912 12.0239C128.516 12.3857 127.965 12.5631 127.27 12.5631H120.621C119.923 12.5631 119.375 12.3822 118.979 12.0239ZM118.979 16.4911C118.583 16.1292 118.381 15.7048 118.381 15.2177C118.381 14.7306 118.579 14.3062 118.979 13.9443C119.375 13.5825 119.923 13.4016 120.621 13.4016H127.27C127.969 13.4016 128.516 13.5825 128.912 13.9443C129.309 14.3062 129.51 14.7306 129.51 15.2177C129.51 15.7048 129.312 16.1327 128.912 16.4911C128.516 16.8529 127.965 17.0338 127.27 17.0338H120.621C119.923 17.0338 119.375 16.8529 118.979 16.4911ZM118.979 20.9583C118.583 20.5965 118.381 20.172 118.381 19.6849C118.381 19.1978 118.579 18.7734 118.979 18.4116C119.375 18.0497 119.923 17.8723 120.621 17.8723H127.27C127.969 17.8723 128.516 18.0532 128.912 18.4116C129.309 18.7734 129.51 19.1978 129.51 19.6849C129.51 20.172 129.312 20.5999 128.912 20.9583C128.516 21.3201 127.965 21.501 127.27 21.501H120.621C119.923 21.501 119.375 21.3201 118.979 20.9583ZM118.979 25.4255C118.583 25.0637 118.381 24.6392 118.381 24.1521C118.381 23.6651 118.579 23.2371 118.979 22.8788C119.379 22.5204 119.923 22.336 120.621 22.336H127.27C127.969 22.336 128.516 22.5169 128.912 22.8788C129.309 23.2406 129.51 23.6616 129.51 24.1521C129.51 24.6427 129.312 25.0672 128.912 25.4255C128.516 25.7873 127.965 25.9683 127.27 25.9683H120.621C119.923 25.9683 119.375 25.7873 118.979 25.4255Z" fill="white"/>
<path d="M133.775 3.08942C133.379 2.72759 133.181 2.30313 133.181 1.81605C133.181 1.32897 133.379 0.901037 133.775 0.542685C134.171 0.180854 134.719 0.00341797 135.417 0.00341797H142.066C142.765 0.00341797 143.312 0.184333 143.708 0.542685C144.105 0.904516 144.303 1.32897 144.303 1.81605C144.303 2.30313 144.105 2.73107 143.708 3.08942C143.312 3.45125 142.761 3.62868 142.066 3.62868H135.417C134.719 3.62868 134.171 3.44777 133.775 3.08942ZM133.775 7.55663C133.379 7.1948 133.181 6.77035 133.181 6.28327C133.181 5.79619 133.379 5.37173 133.775 5.0099C134.171 4.64807 134.719 4.46716 135.417 4.46716H146.691C147.389 4.46716 147.937 4.64807 148.333 5.0099C148.729 5.37173 148.931 5.79619 148.931 6.28327C148.931 6.77035 148.733 7.19828 148.333 7.55663C147.937 7.91846 147.386 8.09938 146.691 8.09938H135.417C134.719 8.09938 134.171 7.91846 133.775 7.55663ZM133.775 12.0239C133.379 11.662 133.181 11.2376 133.181 10.7505C133.181 10.2634 133.379 9.83895 133.775 9.47712C134.171 9.11529 134.719 8.93785 135.417 8.93785H160.561C161.26 8.93785 161.807 9.11877 162.203 9.47712C162.599 9.83895 162.801 10.2634 162.801 10.7505C162.801 11.2376 162.603 11.6655 162.203 12.0239C161.807 12.3857 161.256 12.5631 160.561 12.5631H135.417C134.719 12.5631 134.171 12.3822 133.775 12.0239ZM133.775 16.4911C133.379 16.1292 133.181 15.7048 133.181 15.2177C133.181 14.7306 133.379 14.3062 133.775 13.9443C134.171 13.5825 134.719 13.4016 135.417 13.4016H142.066C142.765 13.4016 143.312 13.5825 143.708 13.9443C144.105 14.3062 144.303 14.7306 144.303 15.2177C144.303 15.7048 144.105 16.1327 143.708 16.4911C143.312 16.8529 142.761 17.0338 142.066 17.0338H135.417C134.719 17.0338 134.171 16.8529 133.775 16.4911ZM133.775 20.9583C133.379 20.5965 133.181 20.172 133.181 19.6849C133.181 19.1978 133.379 18.7734 133.775 18.4116C134.171 18.0497 134.719 17.8723 135.417 17.8723H142.066C142.765 17.8723 143.312 18.0532 143.708 18.4116C144.105 18.7734 144.303 19.1978 144.303 19.6849C144.303 20.172 144.105 20.5999 143.708 20.9583C143.312 21.3201 142.761 21.501 142.066 21.501H135.417C134.719 21.501 134.171 21.3201 133.775 20.9583ZM133.775 25.4255C133.379 25.0637 133.181 24.6392 133.181 24.1521C133.181 23.6651 133.379 23.2371 133.775 22.8788C134.171 22.5204 134.719 22.336 135.417 22.336H142.066C142.765 22.336 143.312 22.5169 143.708 22.8788C144.105 23.2406 144.303 23.6616 144.303 24.1521C144.303 24.6427 144.105 25.0672 143.708 25.4255C143.312 25.7873 142.761 25.9683 142.066 25.9683H135.417C134.719 25.9683 134.171 25.7873 133.775 25.4255ZM133.775 29.8927C133.379 29.5309 133.181 29.1099 133.181 28.6194C133.181 28.1288 133.379 27.7078 133.775 27.346C134.171 26.9842 134.719 26.8032 135.417 26.8032H142.066C142.765 26.8032 143.312 26.9842 143.708 27.346C144.105 27.7078 144.303 28.1323 144.303 28.6194C144.303 29.1064 144.105 29.5344 143.708 29.8927C143.312 30.2546 142.761 30.4355 142.066 30.4355H135.417C134.719 30.4355 134.171 30.2546 133.775 29.8927ZM147.649 16.4911C147.253 16.1292 147.051 15.7048 147.051 15.2177C147.051 14.7306 147.249 14.3062 147.649 13.9443C148.045 13.5825 148.592 13.4016 149.291 13.4016H160.564C161.263 13.4016 161.811 13.5825 162.207 13.9443C162.603 14.3062 162.805 14.7306 162.805 15.2177C162.805 15.7048 162.607 16.1327 162.207 16.4911C161.811 16.8529 161.26 17.0338 160.564 17.0338H149.291C148.592 17.0338 148.045 16.8529 147.649 16.4911ZM152.273 3.08942C151.877 2.72759 151.675 2.30313 151.675 1.81605C151.675 1.32897 151.874 0.901037 152.273 0.542685C152.67 0.180854 153.217 0.00341797 153.916 0.00341797H160.564C161.263 0.00341797 161.811 0.184333 162.207 0.542685C162.603 0.904516 162.805 1.32897 162.805 1.81605C162.805 2.30313 162.607 2.73107 162.207 3.08942C161.811 3.45125 161.26 3.62868 160.564 3.62868H153.916C153.217 3.62868 152.67 3.44777 152.273 3.08942ZM152.273 7.55663C151.877 7.1948 151.675 6.77035 151.675 6.28327C151.675 5.79619 151.874 5.37173 152.273 5.0099C152.67 4.64807 153.217 4.46716 153.916 4.46716H160.564C161.263 4.46716 161.811 4.64807 162.207 5.0099C162.603 5.37173 162.805 5.79619 162.805 6.28327C162.805 6.77035 162.607 7.19828 162.207 7.55663C161.811 7.91846 161.26 8.09938 160.564 8.09938H153.916C153.217 8.09938 152.67 7.91846 152.273 7.55663ZM152.273 20.9583C151.877 20.5965 151.675 20.172 151.675 19.6849C151.675 19.1978 151.874 18.7734 152.273 18.4116C152.67 18.0497 153.217 17.8723 153.916 17.8723H160.564C161.263 17.8723 161.811 18.0532 162.207 18.4116C162.603 18.7734 162.805 19.1978 162.805 19.6849C162.805 20.172 162.607 20.5999 162.207 20.9583C161.811 21.3201 161.26 21.501 160.564 21.501H153.916C153.217 21.501 152.67 21.3201 152.273 20.9583ZM152.273 25.4255C151.877 25.0637 151.675 24.6392 151.675 24.1521C151.675 23.6651 151.874 23.2371 152.273 22.8788C152.673 22.5204 153.217 22.336 153.916 22.336H160.564C161.263 22.336 161.811 22.5169 162.207 22.8788C162.603 23.2406 162.805 23.6616 162.805 24.1521C162.805 24.6427 162.607 25.0672 162.207 25.4255C161.811 25.7873 161.26 25.9683 160.564 25.9683H153.916C153.217 25.9683 152.67 25.7873 152.273 25.4255ZM152.273 29.8927C151.877 29.5309 151.675 29.1099 151.675 28.6194C151.675 28.1288 151.874 27.7078 152.273 27.346C152.67 26.9842 153.217 26.8032 153.916 26.8032H160.564C161.263 26.8032 161.811 26.9842 162.207 27.346C162.603 27.7078 162.805 28.1323 162.805 28.6194C162.805 29.1064 162.607 29.5344 162.207 29.8927C161.811 30.2546 161.26 30.4355 160.564 30.4355H153.916C153.217 30.4355 152.67 30.2546 152.273 29.8927Z" fill="white"/>
<path d="M167.069 3.08942C166.673 2.72759 166.475 2.30313 166.475 1.81605C166.475 1.32897 166.673 0.901037 167.069 0.542685C167.465 0.180854 168.013 0.00341797 168.711 0.00341797H193.855C194.554 0.00341797 195.101 0.184333 195.497 0.542685C195.893 0.904516 196.095 1.32897 196.095 1.81605C196.095 2.30313 195.897 2.73107 195.497 3.08942C195.101 3.45125 194.55 3.62868 193.855 3.62868H168.711C168.013 3.62868 167.465 3.44777 167.069 3.08942ZM167.069 7.55663C166.673 7.1948 166.475 6.77035 166.475 6.28327C166.475 5.79619 166.673 5.37173 167.069 5.0099C167.465 4.64807 168.013 4.46716 168.711 4.46716H175.36C176.059 4.46716 176.606 4.64807 177.002 5.0099C177.399 5.37173 177.597 5.79619 177.597 6.28327C177.597 6.77035 177.399 7.19828 177.002 7.55663C176.606 7.91846 176.055 8.09938 175.36 8.09938H168.711C168.013 8.09938 167.465 7.91846 167.069 7.55663ZM167.069 12.0239C166.673 11.662 166.475 11.2376 166.475 10.7505C166.475 10.2634 166.673 9.83895 167.069 9.47712C167.465 9.11529 168.013 8.93785 168.711 8.93785H175.36C176.059 8.93785 176.606 9.11877 177.002 9.47712C177.399 9.83895 177.597 10.2634 177.597 10.7505C177.597 11.2376 177.399 11.6655 177.002 12.0239C176.606 12.3857 176.055 12.5631 175.36 12.5631H168.711C168.013 12.5631 167.465 12.3822 167.069 12.0239ZM167.069 16.4911C166.673 16.1292 166.475 15.7048 166.475 15.2177C166.475 14.7306 166.673 14.3062 167.069 13.9443C167.465 13.5825 168.013 13.4016 168.711 13.4016H184.606C185.304 13.4016 185.852 13.5825 186.248 13.9443C186.644 14.3062 186.846 14.7306 186.846 15.2177C186.846 15.7048 186.648 16.1327 186.248 16.4911C185.852 16.8529 185.301 17.0338 184.606 17.0338H168.711C168.013 17.0338 167.465 16.8529 167.069 16.4911ZM167.069 20.9583C166.673 20.5965 166.475 20.172 166.475 19.6849C166.475 19.1978 166.673 18.7734 167.069 18.4116C167.465 18.0497 168.013 17.8723 168.711 17.8723H175.36C176.059 17.8723 176.606 18.0532 177.002 18.4116C177.399 18.7734 177.597 19.1978 177.597 19.6849C177.597 20.172 177.399 20.5999 177.002 20.9583C176.606 21.3201 176.055 21.501 175.36 21.501H168.711C168.013 21.501 167.465 21.3201 167.069 20.9583ZM167.069 25.4255C166.673 25.0637 166.475 24.6392 166.475 24.1521C166.475 23.6651 166.673 23.2371 167.069 22.8788C167.465 22.5204 168.013 22.336 168.711 22.336H175.36C176.059 22.336 176.606 22.5169 177.002 22.8788C177.399 23.2406 177.597 23.6616 177.597 24.1521C177.597 24.6427 177.399 25.0672 177.002 25.4255C176.606 25.7873 176.055 25.9683 175.36 25.9683H168.711C168.013 25.9683 167.465 25.7873 167.069 25.4255ZM167.069 29.8927C166.673 29.5309 166.475 29.1099 166.475 28.6194C166.475 28.1288 166.673 27.7078 167.069 27.346C167.465 26.9842 168.013 26.8032 168.711 26.8032H193.855C194.554 26.8032 195.101 26.9842 195.497 27.346C195.893 27.7078 196.095 28.1323 196.095 28.6194C196.095 29.1064 195.897 29.5344 195.497 29.8927C195.101 30.2546 194.55 30.4355 193.855 30.4355H168.711C168.013 30.4355 167.465 30.2546 167.069 29.8927Z" fill="white"/>
</g>
</g>
<defs>
<filter id="filter0_b_446_5813" x="-57.4762" y="-57.4762" width="311.048" height="145.381" filterUnits="userSpaceOnUse" color-interpolation-filters="sRGB">
<feFlood flood-opacity="0" result="BackgroundImageFix"/>
<feGaussianBlur in="BackgroundImageFix" stdDeviation="28.7381"/>
<feComposite in2="SourceAlpha" operator="in" result="effect1_backgroundBlur_446_5813"/>
<feBlend mode="normal" in="SourceGraphic" in2="effect1_backgroundBlur_446_5813" result="shape"/>
</filter>
<linearGradient id="paint0_linear_446_5813" x1="-0.151272" y1="15.2143" x2="62.0683" y2="15.2143" gradientUnits="userSpaceOnUse">
<stop stop-color="#FBB040"/>
<stop offset="1" stop-color="#F15A29"/>
</linearGradient>
<linearGradient id="paint1_linear_446_5813" x1="0.000205551" y1="-6.27751e-05" x2="62.0685" y2="-6.27751e-05" gradientUnits="userSpaceOnUse">
<stop stop-color="#FBB040"/>
<stop offset="1" stop-color="#F15A29"/>
</linearGradient>
<clipPath id="clip0_446_5813">
<rect width="196.095" height="30.4286" fill="white"/>
</clipPath>
</defs>
</svg>
